HIERARCHY
ROOT Hips
{
 OFFSET 0.000000 0.000000 0.000000
 CHANNELS 6 Xposition Yposition Zposition Yrotation Xrotation Zrotation
 JOINT Chest
 {
  OFFSET 0.000000 9.812683 -0.003552
  CHANNELS 3 Yrotation Xrotation Zrotation
  JOINT Chest2
  {
   OFFSET 0.000000 9.777810 0.007248
   CHANNELS 3 Yrotation Xrotation Zrotation
   JOINT Chest3
   {
    OFFSET 0.000000 9.736392 0.000000
    CHANNELS 3 Yrotation Xrotation Zrotation
    JOINT Chest4
    {
     OFFSET 0.000000 9.726454 0.000000
     CHANNELS 3 Yrotation Xrotation Zrotation
     JOINT Neck
     {
      OFFSET 0.000000 14.679095 0.000000
      CHANNELS 3 Yrotation Xrotation Zrotation
      JOINT Head
      {
       OFFSET 0.000000 9.104124 0.015333
       CHANNELS 3 Yrotation Xrotation Zrotation
       End Site
       {
        OFFSET 0.000000 17.313862 0.008094
       }
      }
     }
     JOINT RightCollar
     {
      OFFSET -2.991841 9.728033 0.000000
      CHANNELS 3 Yrotation Xrotation Zrotation
      JOINT RightShoulder
      {
       OFFSET -14.105608 0.000000 0.000000
       CHANNELS 3 Yrotation Xrotation Zrotation
       JOINT RightElbow
       {
        OFFSET -30.920614 0.000000 0.000000
        CHANNELS 3 Yrotation Xrotation Zrotation
        JOINT RightWrist
        {
         OFFSET -25.011638 0.000000 0.000000
         CHANNELS 3 Yrotation Xrotation Zrotation
         End Site
         {
          OFFSET -18.498852 0.000000 0.000000
         }
        }
       }
      }
     }
     JOINT LeftCollar
     {
      OFFSET 2.991841 9.728033 0.000000
      CHANNELS 3 Yrotation Xrotation Zrotation
      JOINT LeftShoulder
      {
       OFFSET 14.105608 0.000000 0.000000
       CHANNELS 3 Yrotation Xrotation Zrotation
       JOINT LeftElbow
       {
        OFFSET 30.920614 0.000000 0.000000
        CHANNELS 3 Yrotation Xrotation Zrotation
        JOINT LeftWrist
        {
         OFFSET 25.011638 0.000000 0.000000
         CHANNELS 3 Yrotation Xrotation Zrotation
         End Site
         {
          OFFSET 18.498852 0.000000 0.000000
         }
        }
       }
      }
     }
    }
   }
  }
 }
 JOINT RightHip
 {
  OFFSET -8.005612 0.017580 0.001776
  CHANNELS 3 Yrotation Xrotation Zrotation
  JOINT RightKnee
  {
   OFFSET 0.000000 -41.413990 -0.001697
   CHANNELS 3 Yrotation Xrotation Zrotation
   JOINT RightAnkle
   {
    OFFSET 0.000000 -40.303361 -0.002870
    CHANNELS 3 Yrotation Xrotation Zrotation
    JOINT RightToe
    {
     OFFSET 0.000000 -7.855341 17.873357
     CHANNELS 3 Yrotation Xrotation Zrotation
     End Site
     {
      OFFSET 0.000000 -1.536332 6.874071
     }
    }
   }
  }
 }
 JOINT LeftHip
 {
  OFFSET 8.005612 0.017580 0.001776
  CHANNELS 3 Yrotation Xrotation Zrotation
  JOINT LeftKnee
  {
   OFFSET 0.000000 -41.413990 -0.001697
   CHANNELS 3 Yrotation Xrotation Zrotation
   JOINT LeftAnkle
   {
    OFFSET 0.000000 -40.303361 -0.002870
    CHANNELS 3 Yrotation Xrotation Zrotation
    JOINT LeftToe
    {
     OFFSET 0.000000 -7.855341 17.873357
     CHANNELS 3 Yrotation Xrotation Zrotation
     End Site
     {
      OFFSET 0.000000 -1.536332 6.874071
     }
    }
   }
  }
 }
}
MOTION
Frames: 17
Frame Time: 0.008333
0.000000 89.373800 0.000000 0.000000 -5.767889 0.000000 0.000000 11.653876 0.000000 0.000000 -5.885988 0.000000 0.000000 -0.000000 0.000000 0.000000 -0.000000 0.000000 0.000000 12.528808 0.000000 0.000000 0.711711 0.000000 0.000000 -0.000000 0.000000 0.000000 -0.000000 0.000000 2.309063 -0.000000 0.000000 -2.309063 -0.000000 -0.000000 0.000000 -0.000000 0.000000 0.000000 0.000000 0.000000 -2.309063 0.000000 0.000000 2.309063 -0.000000 0.000000 0.000000 8.520374 0.000000 0.000000 1.905768 0.000000 -0.000000 -4.658254 0.000000 0.000000 -0.000000 0.000000 0.000000 8.520374 0.000000 0.000000 1.905768 0.000000 -0.000000 -4.658254 0.000000 0.000000 -0.000000 0.000000
-6.665873 91.126189 -0.912779 -133.039448 -7.525319 -0.511284 0.248658 3.118652 -0.040620 0.140186 1.781604 -0.000544 0.175252 2.227005 0.000002 0.140186 1.781604 -0.000544 -4.630404 18.646393 -1.029574 -4.708403 -5.950304 -0.039174 -2.732991 0.983711 0.604384 -0.425596 -0.509540 90.319031 0.674131 -2.327405 -1.478495 -0.001105 -5.331557 0.183108 -2.119134 0.148680 0.203396 -4.561817 2.219476 -88.981961 -1.729168 -1.294310 -1.892825 -4.372675 -6.437888 1.840688 -10.263031 6.809134 -3.900521 -39.888083 7.065311 -1.353431 -21.340477 -3.340617 4.232164 0.002789 -0.045624 0.001343 -6.211527 9.553990 0.962431 -26.616372 3.913144 1.311105 -3.539977 -6.590763 -0.254062 -0.000247 0.061870 -0.003723
-6.665124 91.126258 -0.915886 -133.026556 -7.518804 -0.509575 0.246516 3.120328 -0.043259 0.139268 1.782441 -0.002574 0.174094 2.228052 -0.002541 0.139268 1.782441 -0.002574 -4.623795 18.654194 -1.031496 -4.700860 -5.941957 -0.042748 -2.724336 0.974907 0.599976 -0.425128 -0.512198 90.311544 0.674646 -2.327381 -1.477610 0.003974 -5.331773 0.177894 -2.117227 0.144122 0.205048 -4.580464 2.216998 -88.970035 -1.729158 -1.285423 -1.880782 -4.360714 -6.422216 1.838371 -10.273271 6.802056 -3.902236 -39.894247 7.071529 -1.355061 -21.352457 -3.342548 4.237692 0.002313 -0.045779 -0.000041 -6.215209 9.544156 0.964099 -26.624414 3.916211 1.306515 -3.544867 -6.591619 -0.251232 0.000031 0.061539 -0.004170
-6.664161 91.126284 -0.919282 -133.013479 -7.508432 -0.506416 0.244588 3.120656 -0.046192 0.138528 1.782299 -0.004752 0.173158 2.227875 -0.005267 0.138528 1.782299 -0.004752 -4.618378 18.662105 -1.033066 -4.694699 -5.933425 -0.045675 -2.716262 0.964738 0.595400 -0.423600 -0.511764 90.303565 0.676047 -2.334929 -1.476603 0.010007 -5.327911 0.174042 -2.116501 0.139213 0.207245 -4.600760 2.214070 -88.962135 -1.727420 -1.277192 -1.866440 -4.351778 -6.404529 1.839375 -10.295609 6.791207 -3.905795 -39.893918 7.076653 -1.357244 -21.358630 -3.345002 4.242878 0.001456 -0.045353 -0.000688 -6.224778 9.530575 0.964284 -26.632627 3.918637 1.301135 -3.545156 -6.592030 -0.248290 -0.000305 0.060914 -0.004551
-6.663265 91.126262 -0.922725 -132.999915 -7.494826 -0.500704 0.243628 3.120139 -0.049230 0.138461 1.781640 -0.007049 0.173063 2.227052 -0.008139 0.138461 1.781640 -0.007049 -4.616268 18.669273 -1.034065 -4.692268 -5.925548 -0.047241 -2.712410 0.951413 0.588544 -0.420546 -0.509343 90.298098 0.677261 -2.349772 -1.477486 0.015344 -5.317998 0.170336 -2.121991 0.133492 0.207478 -4.618789 2.210488 -88.954109 -1.726127 -1.265595 -1.850991 -4.341384 -6.387408 1.841489 -10.330832 6.776791 -3.912030 -39.886212 7.080469 -1.362278 -21.356264 -3.347556 4.248460 0.000388 -0.044326 -0.000108 -6.240957 9.513010 0.960726 -26.639778 3.922156 1.296295 -3.542009 -6.591712 -0.247510 -0.000616 0.059260 -0.003552
-6.662644 91.126234 -0.926569 -132.986044 -7.481104 -0.494301 0.241733 3.120009 -0.052804 0.138043 1.781193 -0.009475 0.172528 2.226494 -0.011174 0.138043 1.781193 -0.009475 -4.612096 18.675779 -1.034340 -4.687746 -5.918510 -0.048499 -2.706366 0.934989 0.582832 -0.422254 -0.506942 90.292373 0.676873 -2.358064 -1.478475 0.019478 -5.310105 0.165064 -2.126304 0.127045 0.208150 -4.631858 2.206867 -88.944679 -1.725662 -1.247277 -1.836278 -4.330089 -6.368321 1.841787 -10.373452 6.759438 -3.918526 -39.872610 7.086158 -1.371413 -21.357016 -3.350086 4.255584 -0.001123 -0.043433 0.000650 -6.262758 9.493683 0.954784 -26.642361 3.929590 1.291827 -3.539812 -6.592607 -0.248274 -0.000539 0.056938 -0.001612
-6.662054 91.126181 -0.930981 -132.973325 -7.467984 -0.489812 0.239138 3.119637 -0.056953 0.137251 1.780694 -0.011657 0.171527 2.225871 -0.013906 0.137251 1.780694 -0.011657 -4.603696 18.682884 -1.033540 -4.678868 -5.911014 -0.049570 -2.696709 0.919202 0.580257 -0.431177 -0.506616 90.281372 0.675346 -2.355269 -1.475682 0.021790 -5.305002 0.160193 -2.127208 0.122087 0.211521 -4.640035 2.202434 -88.935995 -1.724064 -1.223669 -1.824551 -4.318841 -6.348055 1.842825 -10.414371 6.741745 -3.922197 -39.858922 7.092642 -1.381947 -21.362047 -3.351854 4.263342 -0.002787 -0.043323 0.000849 -6.286772 9.474507 0.950270 -26.641926 3.939221 1.286880 -3.538112 -6.595259 -0.248737 -0.000615 0.055036 -0.000049
-6.661280 91.126053 -0.935702 -132.963256 -7.454707 -0.487594 0.238865 3.118154 -0.060894 0.137584 1.779895 -0.013458 0.171935 2.224873 -0.016156 0.137584 1.779895 -0.013458 -4.596639 18.690409 -1.031204 -4.671815 -5.902975 -0.048698 -2.688956 0.905852 0.578750 -0.442203 -0.508577 90.267619 0.674568 -2.344524 -1.471594 0.022449 -5.306367 0.159423 -2.134438 0.119332 0.216247 -4.641437 2.197956 -88.928061 -1.721546 -1.196313 -1.814361 -4.308921 -6.333057 1.842852 -10.445447 6.725696 -3.922986 -39.853374 7.098555 -1.391016 -21.362177 -3.352690 4.269438 -0.003691 -0.044170 0.001567 -6.304800 9.455743 0.949928 -26.644265 3.948193 1.280384 -3.536546 -6.598976 -0.249155 -0.001032 0.054119 0.001767
-6.660701 91.125854 -0.940425 -132.954670 -7.442781 -0.485354 0.241137 3.116322 -0.064395 0.139198 1.779072 -0.015407 0.173943 2.223846 -0.018586 0.139198 1.779072 -0.015407 -4.593431 18.698045 -1.028199 -4.669116 -5.894612 -0.046239 -2.684623 0.893256 0.576746 -0.451546 -0.509554 90.255925 0.676165 -2.329064 -1.470026 0.023798 -5.313970 0.160693 -2.149893 0.118064 0.221303 -4.636020 2.195406 -88.919441 -1.720032 -1.166952 -1.805756 -4.299866 -6.324596 1.840546 -10.468683 6.711407 -3.925226 -39.853727 7.106554 -1.395690 -21.363079 -3.355071 4.271271 -0.003973 -0.044744 0.003727 -6.314503 9.438787 0.951447 -26.650721 3.955869 1.272684 -3.537271 -6.602929 -0.248896 -0.001261 0.053686 0.003406
-6.660420 91.125546 -0.944608 -132.940308 -7.431272 -0.481311 0.241581 3.113679 -0.068252 0.139465 1.778016 -0.017811 0.174266 2.222526 -0.021590 0.139465 1.778016 -0.017811 -4.591044 18.706420 -1.026008 -4.667135 -5.885386 -0.044465 -2.679418 0.881638 0.573970 -0.459165 -0.509554 90.246126 0.678894 -2.312853 -1.470841 0.026361 -5.319087 0.160300 -2.165411 0.117866 0.225659 -4.630803 2.193980 -88.910271 -1.718231 -1.142542 -1.800197 -4.290297 -6.318518 1.840293 -10.495926 6.697996 -3.932300 -39.852473 7.117432 -1.397742 -21.362118 -3.360800 4.272267 -0.003330 -0.044098 0.006604 -6.325343 9.421997 0.950857 -26.660271 3.962147 1.265314 -3.539590 -6.605633 -0.246477 -0.001104 0.053239 0.002996
-6.660244 91.125134 -0.948372 -132.917715 -7.420329 -0.476806 0.238488 3.110729 -0.072530 0.137424 1.776835 -0.020323 0.171702 2.221051 -0.024741 0.137424 1.776835 -0.020323 -4.588176 18.715425 -1.024468 -4.664488 -5.875483 -0.043497 -2.671467 0.872521 0.569759 -0.467136 -0.512146 90.238296 0.680556 -2.296890 -1.473038 0.027365 -5.322260 0.160176 -2.178788 0.118462 0.228978 -4.629482 2.190327 -88.902475 -1.711876 -1.124910 -1.793681 -4.282347 -6.314677 1.840164 -10.529841 6.685007 -3.941061 -39.848493 7.130291 -1.402454 -21.359713 -3.368298 4.277468 -0.002170 -0.042938 0.008385 -6.340778 9.405190 0.948233 -26.672131 3.968357 1.259664 -3.542630 -6.607775 -0.243279 -0.000823 0.052962 0.001276
-6.660181 91.124686 -0.952322 -132.897908 -7.412617 -0.472660 0.237156 3.108333 -0.076572 0.136514 1.775907 -0.022739 0.170552 2.219892 -0.027766 0.136514 1.775907 -0.022739 -4.587478 18.725266 -1.022513 -4.664316 -5.864535 -0.041595 -2.667228 0.866135 0.565155 -0.470544 -0.517035 90.232820 0.681349 -2.288669 -1.477527 0.026289 -5.323671 0.161546 -2.194952 0.120751 0.233177 -4.632106 2.185674 -88.896230 -1.702863 -1.112385 -1.786831 -4.276229 -6.312574 1.837513 -10.559713 6.675058 -3.948254 -39.842995 7.142195 -1.409284 -21.360027 -3.375653 4.285861 -0.001407 -0.041558 0.008128 -6.352897 9.393245 0.944353 -26.682342 3.973983 1.258204 -3.546792 -6.610084 -0.241919 0.000082 0.052651 -0.000051
-6.660087 91.124208 -0.956558 -132.884928 -7.407698 -0.469084 0.239681 3.106562 -0.080624 0.137999 1.775364 -0.025183 0.172397 2.219214 -0.030814 0.137999 1.775364 -0.025183 -4.590105 18.735194 -1.019703 -4.667966 -5.853315 -0.038027 -2.668053 0.859647 0.563128 -0.470579 -0.521377 90.228129 0.683207 -2.288952 -1.485435 0.025482 -5.322862 0.163347 -2.216003 0.124023 0.238155 -4.636298 2.184074 -88.887371 -1.695712 -1.102730 -1.783976 -4.270733 -6.311411 1.833641 -10.581070 6.668942 -3.953485 -39.838569 7.151153 -1.414288 -21.363825 -3.382602 4.293631 -0.000924 -0.039798 0.006648 -6.361539 9.386477 0.940380 -26.689485 3.977685 1.259380 -3.549919 -6.612209 -0.241830 0.001325 0.052408 -0.000883
-6.659534 91.123641 -0.960815 -132.873457 -7.402054 -0.467222 0.241160 3.106089 -0.084617 0.139016 1.775052 -0.027271 0.173659 2.218825 -0.033420 0.139016 1.775052 -0.027271 -4.593396 18.743056 -1.017223 -4.672237 -5.844366 -0.034654 -2.662950 0.849912 0.560112 -0.478996 -0.525604 90.225859 0.686489 -2.287642 -1.493244 0.026242 -5.324128 0.162545 -2.235021 0.124466 0.240664 -4.638443 2.184717 -88.875196 -1.688643 -1.092527 -1.782270 -4.265462 -6.312424 1.827823 -10.596150 6.661341 -3.954959 -39.839047 7.158985 -1.417381 -21.379345 -3.389438 4.298903 -0.001394 -0.037706 0.004733 -6.373052 9.379302 0.938222 -26.695510 3.981158 1.259977 -3.549591 -6.615127 -0.242800 0.001581 0.052921 -0.000805
-6.658679 91.122976 -0.964729 -132.862232 -7.394209 -0.465087 0.241085 3.105496 -0.088169 0.139088 1.774420 -0.028940 0.173741 2.218036 -0.035506 0.139088 1.774420 -0.028940 -4.598121 18.749820 -1.016288 -4.677701 -5.836573 -0.032602 -2.651840 0.839383 0.552680 -0.497333 -0.529459 90.225601 0.690639 -2.281307 -1.497011 0.028773 -5.329297 0.156936 -2.253367 0.123124 0.240795 -4.637800 2.184671 -88.864392 -1.679628 -1.083426 -1.779843 -4.258210 -6.313380 1.820015 -10.605849 6.651840 -3.955503 -39.844989 7.166924 -1.421597 -21.391669 -3.397002 4.304561 -0.001944 -0.035431 0.003461 -6.387626 9.370360 0.936569 -26.700783 3.982466 1.259656 -3.547529 -6.617050 -0.244881 0.000736 0.053724 0.000063
-6.658046 91.122283 -0.968438 -132.851230 -7.386334 -0.461361 0.242709 3.103761 -0.091385 0.139860 1.773448 -0.030767 0.174697 2.216821 -0.037786 0.139860 1.773448 -0.030767 -4.604967 18.757254 -1.015649 -4.685419 -5.827927 -0.030387 -2.648410 0.830421 0.544792 -0.511656 -0.530719 90.223991 0.696424 -2.273806 -1.497317 0.031650 -5.337801 0.150191 -2.276483 0.123359 0.241613 -4.635996 2.183775 -88.856977 -1.669907 -1.077365 -1.777709 -4.248644 -6.310519 1.813218 -10.611818 6.644036 -3.958847 -39.856885 7.176525 -1.428115 -21.385365 -3.405642 4.312616 -0.001248 -0.033792 0.003722 -6.402065 9.362593 0.934873 -26.704731 3.979563 1.257769 -3.547508 -6.616615 -0.246023 -0.000394 0.054357 0.000598
-6.657615 91.121629 -0.972475 -132.841560 -7.380016 -0.458587 0.246001 3.102655 -0.093971 0.141605 1.772616 -0.032435 0.176870 2.215782 -0.039864 0.141605 1.772616 -0.032435 -4.611983 18.763669 -1.014705 -4.693379 -5.820405 -0.027805 -2.653237 0.821892 0.537806 -0.516596 -0.531329 90.220968 0.703552 -2.267877 -1.495257 0.033240 -5.348453 0.145856 -2.298951 0.123171 0.243736 -4.636043 2.183345 -88.854263 -1.659076 -1.074416 -1.773066 -4.240600 -6.305502 1.808606 -10.613401 6.636746 -3.960484 -39.873609 7.186771 -1.435207 -21.383611 -3.413403 4.320068 -0.000958 -0.032769 0.003985 -6.411314 9.356386 0.934994 -26.708501 3.977239 1.254884 -3.550568 -6.617040 -0.245746 -0.001355 0.055063 0.000582
